<mxfile host="app.diagrams.net" modified="2021-08-12T06:58:57.568Z" agent="5.0 (Windows NT 10.0; Win64; x64) AppleWebKit/537.36 (KHTML, like Gecko) Chrome/90.0.4430.93 Safari/537.36" etag="fwX_-n7i0a1nlGfyLAqg" version="14.9.5" type="github">
  <diagram id="tNTRsLVCi-Pq_kHy4Ha2" name="Page-1">
    <mxGraphModel dx="1328" dy="746" grid="1" gridSize="10" guides="1" tooltips="1" connect="1" arrows="1" fold="1" page="1" pageScale="1" pageWidth="827" pageHeight="1169" math="0" shadow="0">
      <root>
        <mxCell id="0" />
        <mxCell id="1" parent="0" />
        <mxCell id="gpQY-erN_U3pU3tfi6_T-13" value="" style="rounded=1;whiteSpace=wrap;html=1;shadow=0;glass=0;sketch=0;opacity=70;fillColor=#dae8fc;strokeColor=none;" vertex="1" parent="1">
          <mxGeometry x="190" y="42.54" width="380" height="307.46" as="geometry" />
        </mxCell>
        <mxCell id="gpQY-erN_U3pU3tfi6_T-14" value="" style="rounded=1;whiteSpace=wrap;html=1;fillColor=#dae8fc;strokeColor=#6c8ebf;" vertex="1" parent="1">
          <mxGeometry x="210" y="110" width="120" height="180" as="geometry" />
        </mxCell>
        <mxCell id="gpQY-erN_U3pU3tfi6_T-15" value="&lt;font style=&quot;font-size: 11px&quot;&gt;SplashScreenWindow&lt;/font&gt;" style="text;html=1;strokeColor=none;fillColor=none;align=center;verticalAlign=middle;whiteSpace=wrap;rounded=0;fontSize=9;" vertex="1" parent="1">
          <mxGeometry x="250" y="120" width="40" height="20" as="geometry" />
        </mxCell>
        <mxCell id="gpQY-erN_U3pU3tfi6_T-16" value="" style="ellipse;whiteSpace=wrap;html=1;aspect=fixed;fillColor=#d5e8d4;strokeColor=#82b366;" vertex="1" parent="1">
          <mxGeometry x="250" y="180" width="40" height="40" as="geometry" />
        </mxCell>
        <mxCell id="gpQY-erN_U3pU3tfi6_T-17" value="" style="rounded=1;whiteSpace=wrap;html=1;fillColor=#dae8fc;strokeColor=#6c8ebf;" vertex="1" parent="1">
          <mxGeometry x="430" y="110" width="120" height="180" as="geometry" />
        </mxCell>
        <mxCell id="gpQY-erN_U3pU3tfi6_T-18" value="SplashScreenView" style="text;html=1;strokeColor=none;fillColor=none;align=center;verticalAlign=middle;whiteSpace=wrap;rounded=0;" vertex="1" parent="1">
          <mxGeometry x="470" y="120" width="40" height="20" as="geometry" />
        </mxCell>
        <mxCell id="gpQY-erN_U3pU3tfi6_T-19" value="" style="ellipse;whiteSpace=wrap;html=1;aspect=fixed;fillColor=#d5e8d4;strokeColor=#82b366;" vertex="1" parent="1">
          <mxGeometry x="470" y="180" width="40" height="40" as="geometry" />
        </mxCell>
        <mxCell id="gpQY-erN_U3pU3tfi6_T-20" value="&lt;span&gt;Enter&lt;/span&gt;" style="text;html=1;strokeColor=none;fillColor=none;align=center;verticalAlign=middle;whiteSpace=wrap;rounded=0;fontStyle=0" vertex="1" parent="1">
          <mxGeometry x="250" y="80" width="40" height="20" as="geometry" />
        </mxCell>
        <mxCell id="gpQY-erN_U3pU3tfi6_T-21" value="&lt;span&gt;Exit&lt;/span&gt;" style="text;html=1;strokeColor=none;fillColor=none;align=center;verticalAlign=middle;whiteSpace=wrap;rounded=0;fontStyle=0" vertex="1" parent="1">
          <mxGeometry x="470" y="80" width="40" height="20" as="geometry" />
        </mxCell>
        <mxCell id="gpQY-erN_U3pU3tfi6_T-22" value="&lt;b&gt;&lt;font style=&quot;font-size: 14px&quot;&gt;Splash Screen&lt;/font&gt;&lt;/b&gt;" style="text;html=1;strokeColor=none;fillColor=none;align=center;verticalAlign=middle;whiteSpace=wrap;rounded=0;" vertex="1" parent="1">
          <mxGeometry x="304.66" y="50" width="150.68" height="20" as="geometry" />
        </mxCell>
        <mxCell id="gpQY-erN_U3pU3tfi6_T-23" value="EnterDuration" style="html=1;verticalAlign=bottom;startArrow=circle;startFill=1;endArrow=open;startSize=6;endSize=8;fontSize=9;fillColor=#dae8fc;strokeColor=#6c8ebf;" edge="1" parent="1">
          <mxGeometry width="80" relative="1" as="geometry">
            <mxPoint x="210" y="320" as="sourcePoint" />
            <mxPoint x="320" y="320" as="targetPoint" />
          </mxGeometry>
        </mxCell>
        <mxCell id="gpQY-erN_U3pU3tfi6_T-24" value="Window Keep" style="html=1;verticalAlign=bottom;startArrow=circle;startFill=1;endArrow=open;startSize=6;endSize=8;fontSize=9;fillColor=#f5f5f5;strokeColor=#666666;opacity=50;" edge="1" parent="1">
          <mxGeometry width="80" relative="1" as="geometry">
            <mxPoint x="320" y="320" as="sourcePoint" />
            <mxPoint x="440" y="320" as="targetPoint" />
          </mxGeometry>
        </mxCell>
        <mxCell id="gpQY-erN_U3pU3tfi6_T-25" value="ExitDuration" style="html=1;verticalAlign=bottom;startArrow=circle;startFill=1;endArrow=open;startSize=6;endSize=8;fontSize=9;fillColor=#dae8fc;strokeColor=#6c8ebf;" edge="1" parent="1">
          <mxGeometry width="80" relative="1" as="geometry">
            <mxPoint x="440" y="320" as="sourcePoint" />
            <mxPoint x="550" y="320" as="targetPoint" />
          </mxGeometry>
        </mxCell>
      </root>
    </mxGraphModel>
  </diagram>
</mxfile>
